# xmcd
#
# Track frame offsets: 
#        150
#        11840
#        26417
#        41880
#        62090
#        76635
#        95190
#        107397
#        122570
#        144200
#        157837
#        182265
#        199937
#        222532
#        236890
#        253250
#        273807
#        295155
#
# Disc length: 4105 seconds
#
# Revision: 4
# Processed by: cddbd v1.5.2PL0 Copyright (c) Steve Scherf et al.
# Submitted via: ExactAudioCopy v0.95b4
#
DISCID=f8100712
DTITLE=Otis Spann - Down to Earth: The Bluesway Recordings
DYEAR=1995
DGENRE=Chicago Blues
TTITLE0=Popcorn Man
TTITLE1=Brand New House
TTITLE2=Chicago Blues
TTITLE3=Steel Mill Blues
TTITLE4=Down on Sarah Street
TTITLE5=T'Ain't Nobody's Bizness if I Do
TTITLE6=Nobody Knows Chicago like I Do (Party Blues)
TTITLE7=My Home Is in the Delta
TTITLE8=Spann Blues
TTITLE9=Heart Loaded with Trouble
TTITLE10=Diving Duck
TTITLE11=Shimmy Baby
TTITLE12=Look like Twins
TTITLE13=I'm a Fool
TTITLE14=My Man
TTITLE15=Down to Earth
TTITLE16=Nobody Knows
TTITLE17=Doctor Blues
EXTD=CD subtitle: "Featuring Muddy Waters on Guitar".\nOtis Spann (193
EXTD=0/1970): vocals, piano\nLucille Spann (b.1938) (tracks 12,14-16):
EXTD=vocals\n"Little" George "Harmonica" Smith (1924/1983) (1,2,5,7,9
EXTD=), George "Mojo" Buford (b.1929) (10-18): harmonica\nMuddy Waters
EXTD=[McKinley Morganfield] (1915/1983), Luther "Georgia Boy/Snake Bo
EXTD=y" Johnson (1934/1976), Sam(my) Lawhorn (1935/1990): guitars\nMac
EXTD=Arnold (1-9), Lawrence "Sonny" Wimberley (10-18): bass\nFrancis 
EXTD=Clay (b.1923) (1-9), S.P. Leary (1930/1998) (10-18): drums\nTrack
EXTD=s 1-9 ("Live, 1966") recorded live in studio, New York US-NY, 196
EXTD=6-08-30 - originally released as "The Blues Is Where It's At", Blu
EXTD=esway LP BLS-6003 (1967).\nTracks 10-18 ("Studio, 1967") recorded
EXTD=New York US-NY, 1967-11-20 - originally released as "The Bottom o
EXTD=f the Blues", Bluesway LP BLS-6013 (1968).\nAll recordings produc
EXTD=ed by Bob Thiele (1922/1996).\nReissue produced by Andy McKaie.\n
EXTD=Digitally remastered from original ABC-Bluesway masters by Erick 
EXTD=Labson, MCA Music Media Studios, North Hollywood US-CA.\nCD: MCA 
EXTD=MCAD-11202 (1995-03-14), UPC 008811120221.
EXTT0=(McKinley Morganfield)
EXTT1=(Woody Harris/Bobby Darin)
EXTT2=(Otis Spann/G. Spink)
EXTT3=(Otis Spann)
EXTT4=(Otis Spann)
EXTT5=(Porter Grainger/Everett Robbins)
EXTT6=(Otis Spann)
EXTT7=(McKinley Morganfield)
EXTT8=(Otis Spann)
EXTT9=(James Olden)
EXTT10=(Otis Spann)
EXTT11=(McKinley Morganfield)
EXTT12=(McKinley Morganfield)
EXTT13=(Lucille Spann)
EXTT14=(Lucille Spann)
EXTT15=(Otis Spann)
EXTT16=(Walter Davis)
EXTT17=(Otis Spann)
PLAYORDER=
